<?xml version="1.0" standalone="no"?>
<!DOCTYPE svg PUBLIC "-//W3C//DTD SVG 20010904//EN"
 "http://www.w3.org/TR/2001/REC-SVG-20010904/DTD/svg10.dtd">
<svg version="1.0" xmlns="http://www.w3.org/2000/svg"
 width="254.000000pt" height="254.000000pt" viewBox="0 0 254.000000 254.000000"
 preserveAspectRatio="xMidYMid meet">
<metadata>
Created by potrace 1.11, written by Peter Selinger 2001-2013
</metadata>
<g transform="translate(0.000000,254.000000) scale(0.100000,-0.100000)"
fill="#000000" stroke="none">
<path d="M875 1803 c-117 -16 -368 -98 -412 -135 -14 -11 -54 -16 -163 -18
-41 -1 -68 -4 -60 -7 8 -2 21 -7 29 -9 10 -3 5 -11 -17 -24 -38 -23 -43 -24
-40 -8 2 6 -4 13 -13 15 -16 4 -79 -52 -79 -70 0 -12 53 1 61 15 3 5 8 8 11 6
2 -1 24 8 49 21 52 28 82 23 77 -11 -3 -25 -28 -35 -141 -58 -123 -25 -165
-102 -174 -319 -5 -97 5 -217 14 -178 6 26 18 21 34 -15 8 -17 22 -36 32 -42
39 -23 80 70 79 180 -1 115 -39 197 -81 175 -18 -10 -51 -78 -51 -106 0 -8 -5
-15 -10 -15 -15 0 -3 75 20 127 19 43 49 67 73 58 38 -15 78 -147 76 -250 -2
-105 -48 -224 -87 -226 -24 -2 52 -16 123 -23 33 -3 71 -8 85 -10 14 -3 43 -7
65 -10 119 -18 320 -59 394 -81 46 -14 105 -27 130 -30 25 -3 60 -8 76 -10 30
-4 213 -15 340 -21 152 -7 1053 -12 1103 -6 29 4 54 12 55 17 1 6 -27 17 -63
25 l-64 16 46 27 c26 15 58 27 71 27 37 0 56 10 50 26 -3 8 3 43 12 79 13 46
16 84 12 132 -9 106 -9 106 -72 78 l-54 -23 -16 24 c-16 24 -15 28 16 82 l32
56 -39 33 c-49 42 -157 95 -251 123 -40 12 -73 24 -73 26 0 3 11 9 25 14 50
19 21 64 -51 80 -35 8 -64 -4 -64 -25 0 -23 -8 -19 -79 38 -113 92 -137 107
-218 141 -153 65 -340 93 -618 93 -93 0 -183 -1 -200 -4z m977 -212 c95 -72
129 -121 87 -126 -98 -14 -167 -18 -356 -20 -126 -2 -223 1 -223 6 0 5 26 9
58 10 215 2 342 13 387 35 46 21 46 51 0 95 -35 34 -43 49 -26 49 4 0 37 -22
73 -49z m-1533 -155 c35 -3 66 -8 69 -11 3 -3 0 -5 -7 -5 -7 0 -25 -15 -42
-32 -25 -28 -29 -41 -29 -88 l0 -55 -50 0 c-47 0 -50 2 -50 25 0 43 -42 112
-79 131 -28 15 -31 20 -18 25 21 8 118 21 132 18 6 -1 39 -5 74 -8z m226 -22
c17 -3 56 -12 87 -20 64 -16 143 -32 203 -41 50 -7 54 -10 24 -22 -30 -11 -86
-66 -94 -92 -8 -24 -17 -24 -41 2 -37 41 -144 120 -154 114 -5 -3 -10 -1 -10
5 0 6 -22 21 -50 33 -55 24 -66 40 -22 32 15 -3 41 -8 57 -11z m472 -159 c123
-142 66 -478 -81 -478 -48 0 -58 5 -93 47 -81 101 -87 291 -12 413 46 74 130
82 186 18z m381 -20 c131 -44 292 -108 292 -116 0 -3 -9 -18 -21 -33 -22 -27
-31 -28 -119 -11 -26 5 -53 10 -105 19 -16 3 -55 10 -85 16 -30 7 -68 14 -84
17 -16 2 -38 8 -49 12 -19 7 -16 10 18 21 62 19 65 28 23 62 -80 64 -34 69
130 13z m894 -115 c64 -17 78 -34 41 -53 -112 -58 -580 -42 -556 19 6 16 26
23 117 39 87 15 334 12 398 -5z m-1803 -5 c36 -18 99 -33 177 -40 91 -9 90 -9
92 -63 l1 -48 -109 37 c-122 43 -165 62 -197 92 -38 34 -14 48 36 22z m1028
-159 c22 -4 49 -16 59 -27 16 -17 16 -21 3 -34 -23 -23 -70 -33 -142 -30 -89
5 -156 40 -128 68 30 30 115 40 208 23z m-1059 -13 c37 -9 70 -21 73 -26 4 -5
19 -7 33 -5 18 4 26 1 26 -8 0 -11 -29 -14 -140 -14 -86 0 -140 4 -140 10 0
18 43 60 62 60 11 0 49 -7 86 -17z m2026 7 c23 -8 25 -12 14 -34 -14 -32 -65
-50 -102 -37 -37 15 -33 32 14 64 28 20 39 21 74 7z"/>
<path d="M865 1196 c-99 -106 -54 -355 65 -358 41 -1 93 51 109 109 51 182
-72 357 -174 249z"/>
<path d="M20 995 c0 -5 5 -17 10 -25 5 -8 10 -10 10 -5 0 6 -5 17 -10 25 -5 8
-10 11 -10 5z"/>
<path d="M55 930 c10 -11 20 -20 23 -20 3 0 -3 9 -13 20 -10 11 -20 20 -23 20
-3 0 3 -9 13 -20z"/>
</g>
</svg>
